<svg width="76" height="40" viewBox="0 0 76 40" version="1.1" xmlns="http://www.w3.org/2000/svg" xmlns:xlink="http://www.w3.org/1999/xlink">
<title>Cloud Icon</title>
<desc>Created using Figma</desc>
<g id="Canvas" transform="translate(-68 285)">
<g id="Cloud Icon">
<use xlink:href="#path0_fill" transform="translate(69 -284)" fill="#2C4251"/>
<mask id="mask0_outline_out">
<rect id="mask0_outline_inv" fill="white" x="-1" y="-1" width="76" height="40" transform="translate(69 -284)"/>
<use xlink:href="#path0_fill" fill="black" transform="translate(69 -284)"/>
</mask>
<g mask="url(#mask0_outline_out)">
<use xlink:href="#path1_stroke_2x" transform="translate(69 -284)" fill="#2C4251"/>
</g>
</g>
</g>
<defs>
<path id="path0_fill" fill-rule="evenodd" d="M 0 25.1071C 0 32.2277 5.80173 38 12.9585 38L 37.1705 38L 61.0415 38C 68.1983 38 74 32.2277 74 25.1071C 74 17.9866 68.1983 12.2143 61.0415 12.2143C 59.038 12.2143 57.1407 12.6667 55.4471 13.4743C 53.0684 5.67594 45.7857 0 37.1705 0C 28.5015 0 21.1817 5.74705 18.8499 13.6207C 17.0824 12.7215 15.08 12.2143 12.9585 12.2143C 5.80173 12.2143 0 17.9866 0 25.1071ZM 51.711 20.6964C 52.4437 20.6964 53.1028 20.2831 53.5324 19.6895C 54.2422 18.7088 55.1456 17.8761 56.1871 17.2469C 57.553 16.4216 59.1562 15.9464 60.871 15.9464C 65.8619 15.9464 69.9078 19.9719 69.9078 24.9375C 69.9078 29.8465 65.9537 33.8366 61.0415 33.927L 61.0415 33.9286L 60.871 33.9286L 51.591 33.9286L 48.9849 33.9286L 25.3562 33.9286L 22.409 33.9286L 12.9585 33.9286L 12.9585 33.927C 12.9018 33.928 12.845 33.9286 12.788 33.9286C 7.7971 33.9286 3.75115 29.9031 3.75115 24.9375C 3.75115 19.9719 7.7971 15.9464 12.788 15.9464C 14.7818 15.9464 16.6248 16.5888 18.1193 17.677C 18.8631 18.2185 19.5205 18.8704 20.0673 19.6085C 20.5402 20.2469 21.2538 20.6964 22.0484 20.6964L 22.0484 20.6964C 23.5492 20.6964 24.5757 19.1954 23.7385 17.9497C 23.4226 17.4798 23.0766 17.0316 22.703 16.6081C 23.8501 9.68854 29.8908 4.41071 37.1705 4.41071C 44.3399 4.41071 50.3076 9.52984 51.5825 16.2947C 51.0437 16.8669 50.5568 17.488 50.1292 18.1507C 49.3787 19.3136 50.327 20.6964 51.711 20.6964L 51.711 20.6964Z"/>
<path id="path1_stroke_2x" d="M 56.1871 17.2469L 56.7042 18.1028L 56.7042 18.1028L 56.1871 17.2469ZM 53.5324 19.6895L 52.7223 19.1032L 53.5324 19.6895ZM 61.0415 33.927L 61.0231 32.9272L 60.0415 32.9452L 60.0415 33.927L 61.0415 33.927ZM 61.0415 33.9286L 61.0415 34.9286L 62.0415 34.9286L 62.0415 33.9286L 61.0415 33.9286ZM 12.9585 33.9286L 11.9585 33.9286L 11.9585 34.9286L 12.9585 34.9286L 12.9585 33.9286ZM 12.9585 33.927L 13.9585 33.927L 13.9585 32.9084L 12.9401 32.9272L 12.9585 33.927ZM 18.1193 17.677L 17.5307 18.4854L 17.5307 18.4854L 18.1193 17.677ZM 20.0673 19.6085L 20.8708 19.0132L 20.0673 19.6085ZM 22.703 16.6081L 21.7165 16.4445L 21.6388 16.9131L 21.953 17.2694L 22.703 16.6081ZM 51.5825 16.2947L 52.3105 16.9802L 52.6594 16.6097L 52.5652 16.1095L 51.5825 16.2947ZM 55.4471 13.4743L 54.4906 13.7661L 54.8294 14.8768L 55.8776 14.3769L 55.4471 13.4743ZM 18.8499 13.6207L 18.3965 14.512L 19.4675 15.0568L 19.8087 13.9046L 18.8499 13.6207ZM 55.6699 16.3909C 54.5452 17.0764 53.4945 18.0447 52.7223 19.1032L 54.3425 20.2758C 54.9898 19.3729 55.7461 18.6757 56.7042 18.1028L 55.6699 16.3909ZM 60.871 14.9464C 59.0126 14.9568 57.149 15.5068 55.6699 16.3909L 56.7042 18.1028C 57.9569 17.3364 59.2998 16.9361 60.871 16.9464L 60.871 14.9464ZM 70.9078 24.9375C 70.9078 19.4148 66.4094 14.9464 60.871 14.9464L 60.871 16.9464C 65.3144 16.9464 68.9078 20.5289 68.9078 24.9375L 70.9078 24.9375ZM 61.0599 34.9268C 66.5115 34.8265 70.9078 30.3972 70.9078 24.9375L 68.9078 24.9375C 68.9078 29.2957 65.396 32.8467 61.0231 32.9272L 61.0599 34.9268ZM 60.0415 33.927L 60.0415 33.9286L 62.0415 33.9286L 62.0415 33.927L 60.0415 33.927ZM 61.0415 32.9286L 60.871 32.9286L 60.871 34.9286L 61.0415 34.9286L 61.0415 32.9286ZM 60.871 32.9286L 51.591 32.9286L 51.591 34.9286L 60.871 34.9286L 60.871 32.9286ZM 51.591 32.9286L 48.9849 32.9286L 48.9849 34.9286L 51.591 34.9286L 51.591 32.9286ZM 48.9849 32.9286L 25.3562 32.9286L 25.3562 34.9286L 48.9849 34.9286L 48.9849 32.9286ZM 25.3562 32.9286L 22.409 32.9286L 22.409 34.9286L 25.3562 34.9286L 25.3562 32.9286ZM 22.409 32.9286L 12.9585 32.9286L 12.9585 34.9286L 22.409 34.9286L 22.409 32.9286ZM 13.9585 33.9286L 13.9585 33.927L 11.9585 33.927L 11.9585 33.9286L 13.9585 33.9286ZM 12.9401 32.9272C 12.888 32.9281 12.8404 32.9286 12.788 32.9286L 12.788 34.9286C 12.8496 34.9286 12.9156 34.928 12.9769 34.9268L 12.9401 32.9272ZM 12.788 32.9286C 8.34458 32.9286 4.75115 29.3461 4.75115 24.9375L 2.75115 24.9375C 2.75115 30.4602 7.24961 34.9286 12.788 34.9286L 12.788 32.9286ZM 4.75115 24.9375C 4.75115 20.5289 8.34458 16.9464 12.788 16.9464L 12.788 14.9464C 7.24961 14.9464 2.75115 19.4148 2.75115 24.9375L 4.75115 24.9375ZM 12.788 16.9464C 14.6149 16.9324 16.1609 17.4747 17.5307 18.4854L 18.7079 16.8686C 17.0887 15.7029 14.9487 14.9605 12.788 14.9464L 12.788 16.9464ZM 17.5307 18.4854C 18.2148 18.98 18.7645 19.525 19.2637 20.2038L 20.8708 19.0132C 20.2765 18.2159 19.5113 17.4571 18.7079 16.8686L 17.5307 18.4854ZM 21.953 17.2694C 22.3054 17.6683 22.6115 18.0646 22.9085 18.5075L 24.5684 17.3919C 24.2338 16.895 23.8477 16.395 23.4531 15.9467L 21.953 17.2694ZM 37.1705 3.41071C 29.3974 3.41071 22.9429 9.04666 21.7165 16.4445L 23.6896 16.7716C 24.7573 10.3304 30.3843 5.41071 37.1705 5.41071L 37.1705 3.41071ZM 52.5652 16.1095C 51.2022 8.87731 44.8261 3.41071 37.1705 3.41071L 37.1705 5.41071C 43.8538 5.41071 49.413 10.1824 50.5998 16.4799L 52.5652 16.1095ZM 50.9694 18.6929C 51.3713 18.0682 51.802 17.5188 52.3105 16.9802L 50.8544 15.6092C 50.2854 16.215 49.7423 16.9078 49.289 17.6084L 50.9694 18.6929ZM 12.9585 37C 6.34922 37 1 31.6706 1 25.1071L -1 25.1071C -1 32.7847 5.25424 39 12.9585 39L 12.9585 37ZM 37.1705 37L 12.9585 37L 12.9585 39L 37.1705 39L 37.1705 37ZM 61.0415 37L 37.1705 37L 37.1705 39L 61.0415 39L 61.0415 37ZM 73 25.1071C 73 31.6706 67.6508 37 61.0415 37L 61.0415 39C 68.7458 39 75 32.7847 75 25.1071L 73 25.1071ZM 61.0415 13.2143C 67.6508 13.2143 73 18.5437 73 25.1071L 75 25.1071C 75 17.4295 68.7458 11.2143 61.0415 11.2143L 61.0415 13.2143ZM 55.8776 14.3769C 57.4737 13.6096 59.1547 13.2074 61.0415 13.2143L 61.0415 11.2143C 58.9212 11.2211 56.8076 11.7237 55.0167 12.5717L 55.8776 14.3769ZM 37.1705 1C 45.3364 1 52.2375 6.37946 54.4906 13.7661L 56.4036 13.1826C 53.8993 4.97242 46.2349 -1 37.1705 -1L 37.1705 1ZM 19.8087 13.9046C 22.0173 6.44692 28.9535 1 37.1705 1L 37.1705 -1C 28.0495 -1 20.346 5.04719 17.8911 13.3367L 19.8087 13.9046ZM 12.9585 13.2143C 14.9563 13.2066 16.7307 13.6576 18.3965 14.512L 19.3033 12.7294C 17.434 11.7854 15.2037 11.222 12.9585 11.2143L 12.9585 13.2143ZM 1 25.1071C 1 18.5437 6.34922 13.2143 12.9585 13.2143L 12.9585 11.2143C 5.25424 11.2143 -1 17.4295 -1 25.1071L 1 25.1071ZM 52.7223 19.1032C 52.4368 19.4977 52.0547 19.6964 51.711 19.6964L 51.711 21.6964C 52.8327 21.6964 53.7688 21.0685 54.3425 20.2758L 52.7223 19.1032ZM 19.2637 20.2038C 19.8768 21.0314 20.8636 21.6964 22.0484 21.6964L 22.0484 19.6964C 21.6441 19.6964 21.2036 19.4625 20.8708 19.0132L 19.2637 20.2038ZM 22.0484 21.6964C 23.1363 21.6964 24.0874 21.1503 24.6126 20.329C 25.1514 19.4865 25.2245 18.3681 24.5684 17.3919L 22.9085 18.5075C 23.0896 18.777 23.0681 19.032 22.9277 19.2514C 22.7738 19.4921 22.4612 19.6964 22.0484 19.6964L 22.0484 21.6964ZM 49.289 17.6084C 48.686 18.5427 48.7654 19.6036 49.279 20.4011C 49.7803 21.1796 50.6809 21.6964 51.711 21.6964L 51.711 19.6964C 51.3571 19.6964 51.0916 19.5219 50.9604 19.3182C 50.8415 19.1335 50.8219 18.9215 50.9694 18.6929L 49.289 17.6084Z"/>
</defs>
</svg>
