<svg width="76" height="67" viewBox="0 0 76 67" version="1.1" xmlns="http://www.w3.org/2000/svg" xmlns:xlink="http://www.w3.org/1999/xlink">
<title>Rain Icon</title>
<desc>Created using Figma</desc>
<g id="Canvas" transform="translate(-68 98)">
<g id="Rain Icon">
<g id="Cloud Icon">
<use xlink:href="#path0_fill" transform="translate(69 -97)" fill="#2C4251"/>
<mask id="mask0_outline_out">
<rect id="mask0_outline_inv" fill="white" x="-1" y="-1" width="76" height="41" transform="translate(69 -97)"/>
<use xlink:href="#path0_fill" fill="black" transform="translate(69 -97)"/>
</mask>
<g mask="url(#mask0_outline_out)">
<use xlink:href="#path1_stroke_2x" transform="translate(69 -97)" fill="#2C4251"/>
</g>
</g>
<g id="Raindrop">
<g id="Ellipse 3">
<use xlink:href="#path2_fill" transform="translate(101 -54.1846)" fill="#2C4251"/>
</g>
</g>
</g>
</g>
<defs>
<path id="path0_fill" fill-rule="evenodd" d="M 0 25.2494C 0 32.4103 5.80173 38.2154 12.9585 38.2154L 37.1705 38.2154L 61.0415 38.2154C 68.1983 38.2154 74 32.4103 74 25.2494C 74 18.0886 68.1983 12.2835 61.0415 12.2835C 59.038 12.2835 57.1407 12.7384 55.4471 13.5507C 53.0684 5.70811 45.7857 0 37.1705 0C 28.5015 0 21.1817 5.77963 18.8499 13.6979C 17.0824 12.7936 15.08 12.2835 12.9585 12.2835C 5.80173 12.2835 0 18.0886 0 25.2494ZM 51.7072 20.8137C 52.442 20.8137 53.1027 20.3984 53.5318 19.8019C 54.2417 18.8153 55.1454 17.9776 56.1871 17.3446C 57.553 16.5147 59.1562 16.0368 60.871 16.0368C 65.8619 16.0368 69.9078 20.0851 69.9078 25.0788C 69.9078 30.0156 65.9537 34.0283 61.0415 34.1193L 61.0415 34.1209L 60.871 34.1209L 51.591 34.1209L 48.9849 34.1209L 25.3562 34.1209L 22.409 34.1209L 12.9585 34.1209L 12.9585 34.1193C 12.9018 34.1203 12.845 34.1209 12.788 34.1209C 7.7971 34.1209 3.75115 30.0726 3.75115 25.0788C 3.75115 20.0851 7.7971 16.0368 12.788 16.0368C 14.7818 16.0368 16.6248 16.6829 18.1193 17.7772C 18.8633 18.322 19.521 18.9779 20.0679 19.7204C 20.5404 20.3621 21.2557 20.8137 22.0526 20.8137L 22.0526 20.8137C 23.5526 20.8137 24.5802 19.3149 23.7485 18.0665C 23.43 17.5884 23.0805 17.1327 22.703 16.7022C 23.8501 9.74346 29.8908 4.43571 37.1705 4.43571C 44.3399 4.43571 50.3076 9.58386 51.5825 16.3871C 51.0399 16.9666 50.5499 17.596 50.1201 18.2677C 49.3746 19.4328 50.3239 20.8137 51.7072 20.8137L 51.7072 20.8137Z"/>
<path id="path1_stroke_2x" d="M 56.1871 17.3446L 56.7063 18.1992L 56.7063 18.1992L 56.1871 17.3446ZM 53.5318 19.8019L 52.7201 19.2179L 53.5318 19.8019ZM 61.0415 34.1193L 61.023 33.1195L 60.0415 33.1376L 60.0415 34.1193L 61.0415 34.1193ZM 61.0415 34.1209L 61.0415 35.1209L 62.0415 35.1209L 62.0415 34.1209L 61.0415 34.1209ZM 12.9585 34.1209L 11.9585 34.1209L 11.9585 35.1209L 12.9585 35.1209L 12.9585 34.1209ZM 12.9585 34.1193L 13.9585 34.1193L 13.9585 33.1006L 12.94 33.1195L 12.9585 34.1193ZM 18.1193 17.7772L 17.5285 18.584L 17.5285 18.584L 18.1193 17.7772ZM 22.703 16.7022L 21.7164 16.5395L 21.6395 17.006L 21.9511 17.3615L 22.703 16.7022ZM 51.5825 16.3871L 52.3125 17.0705L 52.6587 16.7008L 52.5654 16.2029L 51.5825 16.3871ZM 55.4471 13.5507L 54.4902 13.8409L 54.8285 14.9565L 55.8796 14.4524L 55.4471 13.5507ZM 18.8499 13.6979L 18.3944 14.5881L 19.4684 15.1376L 19.8092 13.9804L 18.8499 13.6979ZM 55.6678 16.49C 54.5427 17.1795 53.4922 18.1533 52.7201 19.2179L 54.3436 20.3859C 54.9912 19.4772 55.748 18.7756 56.7063 18.1992L 55.6678 16.49ZM 60.871 15.0368C 59.0119 15.0473 57.1472 15.6007 55.6678 16.49L 56.7063 18.1992C 57.9587 17.4287 59.3005 17.0263 60.871 17.0368L 60.871 15.0368ZM 70.9078 25.0788C 70.9078 19.5333 66.4147 15.0368 60.871 15.0368L 60.871 17.0368C 65.3091 17.0368 68.9078 20.6368 68.9078 25.0788L 70.9078 25.0788ZM 61.06 35.1191C 66.5167 35.0181 70.9078 30.5612 70.9078 25.0788L 68.9078 25.0788C 68.9078 29.4701 65.3907 33.0386 61.023 33.1195L 61.06 35.1191ZM 60.0415 34.1193L 60.0415 34.1209L 62.0415 34.1209L 62.0415 34.1193L 60.0415 34.1193ZM 61.0415 33.1209L 60.871 33.1209L 60.871 35.1209L 61.0415 35.1209L 61.0415 33.1209ZM 60.871 33.1209L 51.591 33.1209L 51.591 35.1209L 60.871 35.1209L 60.871 33.1209ZM 51.591 33.1209L 48.9849 33.1209L 48.9849 35.1209L 51.591 35.1209L 51.591 33.1209ZM 48.9849 33.1209L 25.3562 33.1209L 25.3562 35.1209L 48.9849 35.1209L 48.9849 33.1209ZM 25.3562 33.1209L 22.409 33.1209L 22.409 35.1209L 25.3562 35.1209L 25.3562 33.1209ZM 22.409 33.1209L 12.9585 33.1209L 12.9585 35.1209L 22.409 35.1209L 22.409 33.1209ZM 13.9585 34.1209L 13.9585 34.1193L 11.9585 34.1193L 11.9585 34.1209L 13.9585 34.1209ZM 12.94 33.1195C 12.8879 33.1204 12.8403 33.1209 12.788 33.1209L 12.788 35.1209C 12.8496 35.1209 12.9157 35.1203 12.977 35.1191L 12.94 33.1195ZM 12.788 33.1209C 8.34992 33.1209 4.75115 29.5209 4.75115 25.0788L 2.75115 25.0788C 2.75115 30.6244 7.24427 35.1209 12.788 35.1209L 12.788 33.1209ZM 4.75115 25.0788C 4.75115 20.6368 8.34992 17.0368 12.788 17.0368L 12.788 15.0368C 7.24427 15.0368 2.75115 19.5333 2.75115 25.0788L 4.75115 25.0788ZM 12.788 17.0368C 14.614 17.0226 16.159 17.5677 17.5285 18.584L 18.7101 16.9703C 17.0907 15.798 14.9496 15.051 12.788 15.0368L 12.788 17.0368ZM 17.5285 18.584C 18.213 19.0816 18.7631 19.6303 19.2627 20.3134L 20.8731 19.1274C 20.2789 18.3255 19.5137 17.5623 18.7101 16.9703L 17.5285 18.584ZM 21.9511 17.3615C 22.3074 17.7669 22.6166 18.1702 22.9163 18.621L 24.5807 17.512C 24.2433 17.0066 23.8537 16.4985 23.4549 16.0429L 21.9511 17.3615ZM 37.1705 3.43571C 29.3929 3.43571 22.9417 9.10611 21.7164 16.5395L 23.6897 16.8648C 24.7585 10.3808 30.3887 5.43571 37.1705 5.43571L 37.1705 3.43571ZM 52.5654 16.2029C 51.2035 8.93575 44.8304 3.43571 37.1705 3.43571L 37.1705 5.43571C 43.8495 5.43571 49.4116 10.232 50.5996 16.5713L 52.5654 16.2029ZM 50.9625 18.8067C 51.3665 18.1732 51.8002 17.6161 52.3125 17.0705L 50.8525 15.7036C 50.2796 16.317 49.7334 17.0188 49.2778 17.7287L 50.9625 18.8067ZM 12.9585 37.2154C 6.35455 37.2154 1 31.8586 1 25.2494L -1 25.2494C -1 32.9621 5.24891 39.2154 12.9585 39.2154L 12.9585 37.2154ZM 37.1705 37.2154L 12.9585 37.2154L 12.9585 39.2154L 37.1705 39.2154L 37.1705 37.2154ZM 61.0415 37.2154L 37.1705 37.2154L 37.1705 39.2154L 61.0415 39.2154L 61.0415 37.2154ZM 73 25.2494C 73 31.8586 67.6454 37.2154 61.0415 37.2154L 61.0415 39.2154C 68.7511 39.2154 75 32.9621 75 25.2494L 73 25.2494ZM 61.0415 13.2835C 67.6454 13.2835 73 18.6403 73 25.2494L 75 25.2494C 75 17.5368 68.7511 11.2835 61.0415 11.2835L 61.0415 13.2835ZM 55.8796 14.4524C 57.4754 13.6808 59.1554 13.2766 61.0415 13.2835L 61.0415 11.2835C 58.9206 11.2904 56.806 11.7961 55.0147 12.649L 55.8796 14.4524ZM 37.1705 1C 45.3327 1 52.2357 6.40779 54.4902 13.8409L 56.4041 13.2605C 53.9012 5.00844 46.2387 -1 37.1705 -1L 37.1705 1ZM 19.8092 13.9804C 22.0192 6.4756 28.9573 1 37.1705 1L 37.1705 -1C 28.0457 -1 20.3442 5.08366 17.8906 13.4154L 19.8092 13.9804ZM 12.9585 13.2835C 14.9556 13.2757 16.729 13.7291 18.3944 14.5881L 19.3054 12.8076C 17.4357 11.8581 15.2044 11.2913 12.9585 11.2835L 12.9585 13.2835ZM 1 25.2494C 1 18.6403 6.35455 13.2835 12.9585 13.2835L 12.9585 11.2835C 5.24891 11.2835 -1 17.5368 -1 25.2494L 1 25.2494ZM 52.7201 19.2179C 52.4352 19.6139 52.0521 19.8137 51.7072 19.8137L 51.7072 21.8137C 52.8318 21.8137 53.7702 21.1829 54.3436 20.3859L 52.7201 19.2179ZM 19.2627 20.3134C 19.8755 21.1456 20.8646 21.8137 22.0526 21.8137L 22.0526 19.8137C 21.6468 19.8137 21.2052 19.5785 20.8731 19.1274L 19.2627 20.3134ZM 22.0526 21.8137C 23.1399 21.8137 24.0905 21.2684 24.6167 20.4482C 25.1562 19.607 25.2321 18.4898 24.5807 17.512L 22.9163 18.621C 23.0966 18.8916 23.0746 19.148 22.9332 19.3683C 22.7785 19.6096 22.4653 19.8137 22.0526 19.8137L 22.0526 21.8137ZM 49.2778 17.7287C 48.6792 18.6642 48.7611 19.724 49.2753 20.5202C 49.7775 21.2977 50.6777 21.8137 51.7072 21.8137L 51.7072 19.8137C 51.3534 19.8137 51.0873 19.6394 50.9554 19.4351C 50.8355 19.2495 50.8155 19.0363 50.9625 18.8067L 49.2778 17.7287Z"/>
<path id="path2_fill" d="M 9.51429 12.3297C 9.51429 14.7051 7.38444 16.6308 4.75715 16.6308C 2.12985 16.6308 0 14.7051 0 12.3297C 0 9.95429 4.75715 0 4.75715 0C 4.75715 0 9.51429 9.95429 9.51429 12.3297Z"/>
</defs>
</svg>
