<svg width="74" height="74" viewBox="0 0 74 74" version="1.1" xmlns="http://www.w3.org/2000/svg" xmlns:xlink="http://www.w3.org/1999/xlink">
<title>Search Icon</title>
<desc>Created using Figma</desc>
<g id="Canvas" transform="translate(-70 -199)">
<g id="Search Icon">
<g id="Subtract">
<use xlink:href="#path0_fill" transform="matrix(0.707107 -0.707107 0.707107 0.707107 70 230.793)" fill="#2C4251"/>
</g>
<g id="Rectangle 7">
<use xlink:href="#path1_fill" transform="matrix(0.707107 -0.707107 0.707107 0.707107 112.207 246.689)" fill="#2C4251"/>
</g>
</g>
</g>
<defs>
<path id="path0_fill" fill-rule="evenodd" d="M 22.4808 44.9615C 34.8965 44.9615 44.9615 34.8965 44.9615 22.4808C 44.9615 10.065 34.8965 0 22.4808 0C 10.065 0 0 10.065 0 22.4808C 0 34.8965 10.065 44.9615 22.4808 44.9615ZM 22.4808 37.2095C 30.6152 37.2095 37.2095 30.6152 37.2095 22.4808C 37.2095 14.3463 30.6152 7.75199 22.4808 7.75199C 14.3463 7.75199 7.75199 14.3463 7.75199 22.4808C 7.75199 30.6152 14.3463 37.2095 22.4808 37.2095Z"/>
<path id="path1_fill" d="M 0 0L 7.75198 0L 7.75198 33.3335C 7.75198 35.4742 6.01664 37.2095 3.87599 37.2095L 3.87599 37.2095C 1.73534 37.2095 0 35.4742 0 33.3335L 0 0Z"/>
</defs>
</svg>
