<svg width="76" height="60" viewBox="0 0 76 60" version="1.1" xmlns="http://www.w3.org/2000/svg" xmlns:xlink="http://www.w3.org/1999/xlink">
<title>Snow Icon</title>
<desc>Created using Figma</desc>
<g id="Canvas" transform="translate(-69 -109)">
<g id="Snow Icon">
<g id="Cloud Icon">
<use xlink:href="#path0_fill" transform="translate(70 110)" fill="#2C4251"/>
<mask id="mask0_outline_out">
<rect id="mask0_outline_inv" fill="white" x="-1" y="-1" width="76" height="41" transform="translate(70 110)"/>
<use xlink:href="#path0_fill" fill="black" transform="translate(70 110)"/>
</mask>
<g mask="url(#mask0_outline_out)">
<use xlink:href="#path1_stroke_2x" transform="translate(70 110)" fill="#2C4251"/>
</g>
</g>
<g id="Rectangle 6">
<use xlink:href="#path2_fill" transform="translate(92.0174 152.834)" fill="#2C4251"/>
</g>
<g id="Rectangle 6">
<use xlink:href="#path3_fill" transform="matrix(6.07173e-17 1 -1 6.17518e-17 98.7424 157.355)" fill="#2C4251"/>
</g>
<g id="Rectangle 6">
<use xlink:href="#path4_fill" transform="matrix(0.704114 0.710087 -0.704114 0.710087 96.3085 153.69)" fill="#2C4251"/>
</g>
<g id="Rectangle 6">
<use xlink:href="#path4_fill" transform="matrix(-0.704114 0.710087 -0.704114 -0.710087 97.8935 161.683)" fill="#2C4251"/>
</g>
<g id="Rectangle 6">
<use xlink:href="#path2_fill" transform="translate(106.028 157.296)" fill="#2C4251"/>
</g>
<g id="Rectangle 6">
<use xlink:href="#path3_fill" transform="matrix(6.07173e-17 1 -1 6.17518e-17 112.753 161.817)" fill="#2C4251"/>
</g>
<g id="Rectangle 6">
<use xlink:href="#path5_fill" transform="matrix(0.704114 0.710087 -0.704114 0.710087 110.319 158.152)" fill="#2C4251"/>
</g>
<g id="Rectangle 6">
<use xlink:href="#path6_fill" transform="matrix(-0.704114 0.710087 -0.704114 -0.710087 111.904 166.144)" fill="#2C4251"/>
</g>
<g id="Rectangle 6">
<use xlink:href="#path2_fill" transform="translate(120.038 152.834)" fill="#2C4251"/>
</g>
<g id="Rectangle 6">
<use xlink:href="#path7_fill" transform="matrix(6.07173e-17 1 -1 6.17518e-17 126.763 157.355)" fill="#2C4251"/>
</g>
<g id="Rectangle 6">
<use xlink:href="#path5_fill" transform="matrix(0.704114 0.710087 -0.704114 0.710087 124.329 153.69)" fill="#2C4251"/>
</g>
<g id="Rectangle 6">
<use xlink:href="#path8_fill" transform="matrix(-0.704114 0.710087 -0.704114 -0.710087 125.914 161.683)" fill="#2C4251"/>
</g>
</g>
</g>
<defs>
<path id="path0_fill" fill-rule="evenodd" d="M 0 25.1563C 0 32.2908 5.80173 38.0745 12.9585 38.0745L 37.1705 38.0745L 61.0415 38.0745C 68.1983 38.0745 74 32.2908 74 25.1563C 74 18.0219 68.1983 12.2382 61.0415 12.2382C 59.038 12.2382 57.1407 12.6915 55.4471 13.5007C 53.0684 5.68706 45.7857 0 37.1705 0C 28.5015 0 21.1817 5.75832 18.8499 13.6474C 17.0824 12.7464 15.08 12.2382 12.9585 12.2382C 5.80173 12.2382 0 18.0219 0 25.1563ZM 51.7097 20.737C 52.4431 20.737 53.1028 20.3229 53.5322 19.7284C 54.242 18.7456 55.1455 17.9112 56.1871 17.2807C 57.553 16.4538 59.1562 15.9777 60.871 15.9777C 65.8619 15.9777 69.9078 20.011 69.9078 24.9864C 69.9078 29.9049 65.9537 33.9029 61.0415 33.9935L 61.0415 33.9951L 60.871 33.9951L 51.591 33.9951L 48.9849 33.9951L 25.3562 33.9951L 22.409 33.9951L 12.9585 33.9951L 12.9585 33.9935C 12.9018 33.9945 12.845 33.9951 12.788 33.9951C 7.7971 33.9951 3.75115 29.9617 3.75115 24.9864C 3.75115 20.011 7.7971 15.9777 12.788 15.9777C 14.7818 15.9777 16.6248 16.6214 18.1193 17.7116C 18.8632 18.2543 19.5207 18.9076 20.0675 19.6472C 20.5403 20.2867 21.2545 20.737 22.0498 20.737L 22.0498 20.737C 23.5504 20.737 24.5772 19.2367 23.7419 17.9901C 23.4252 17.5173 23.0779 17.0666 22.703 16.6406C 23.8501 9.70753 29.8908 4.41936 37.1705 4.41936C 44.3399 4.41936 50.3076 9.54852 51.5825 16.3266C 51.0424 16.9014 50.5544 17.5254 50.1261 18.1911C 49.3773 19.3548 50.3259 20.737 51.7097 20.737L 51.7097 20.737Z"/>
<path id="path1_stroke_2x" d="M 56.1871 17.2807L 56.7049 18.1361L 56.7049 18.1361L 56.1871 17.2807ZM 53.5322 19.7284L 52.7215 19.1429L 53.5322 19.7284ZM 61.0415 33.9935L 61.023 32.9937L 60.0415 33.0118L 60.0415 33.9935L 61.0415 33.9935ZM 61.0415 33.9951L 61.0415 34.9951L 62.0415 34.9951L 62.0415 33.9951L 61.0415 33.9951ZM 12.9585 33.9951L 11.9585 33.9951L 11.9585 34.9951L 12.9585 34.9951L 12.9585 33.9951ZM 12.9585 33.9935L 13.9585 33.9935L 13.9585 32.9749L 12.9401 32.9937L 12.9585 33.9935ZM 18.1193 17.7116L 17.5299 18.5195L 17.5299 18.5195L 18.1193 17.7116ZM 20.0675 19.6472L 19.2633 20.2417L 20.0675 19.6472ZM 22.703 16.6406L 21.7164 16.4774L 21.639 16.9453L 21.9524 17.3013L 22.703 16.6406ZM 51.5825 16.3266L 52.3112 17.0114L 52.6592 16.6412L 52.5653 16.1418L 51.5825 16.3266ZM 55.4471 13.5007L 54.4905 13.792L 54.8291 14.9043L 55.8783 14.403L 55.4471 13.5007ZM 18.8499 13.6474L 18.3958 14.5383L 19.4678 15.0848L 19.8089 13.9308L 18.8499 13.6474ZM 55.6692 16.4252C 54.5443 17.1121 53.4937 18.0822 52.7215 19.1429L 54.3429 20.3139C 54.9903 19.409 55.7467 18.7103 56.7049 18.1361L 55.6692 16.4252ZM 60.871 14.9777C 59.0124 14.9881 57.1484 15.5393 55.6692 16.4252L 56.7049 18.1361C 57.9575 17.3683 59.3 16.9673 60.871 16.9777L 60.871 14.9777ZM 70.9078 24.9864C 70.9078 19.4558 66.4112 14.9777 60.871 14.9777L 60.871 16.9777C 65.3126 16.9777 68.9078 20.5662 68.9078 24.9864L 70.9078 24.9864ZM 61.0599 34.9933C 66.5133 34.8927 70.9078 30.4539 70.9078 24.9864L 68.9078 24.9864C 68.9078 29.356 65.3942 32.913 61.023 32.9937L 61.0599 34.9933ZM 60.0415 33.9935L 60.0415 33.9951L 62.0415 33.9951L 62.0415 33.9935L 60.0415 33.9935ZM 61.0415 32.9951L 60.871 32.9951L 60.871 34.9951L 61.0415 34.9951L 61.0415 32.9951ZM 60.871 32.9951L 51.591 32.9951L 51.591 34.9951L 60.871 34.9951L 60.871 32.9951ZM 51.591 32.9951L 48.9849 32.9951L 48.9849 34.9951L 51.591 34.9951L 51.591 32.9951ZM 48.9849 32.9951L 25.3562 32.9951L 25.3562 34.9951L 48.9849 34.9951L 48.9849 32.9951ZM 25.3562 32.9951L 22.409 32.9951L 22.409 34.9951L 25.3562 34.9951L 25.3562 32.9951ZM 22.409 32.9951L 12.9585 32.9951L 12.9585 34.9951L 22.409 34.9951L 22.409 32.9951ZM 13.9585 33.9951L 13.9585 33.9935L 11.9585 33.9935L 11.9585 33.9951L 13.9585 33.9951ZM 12.9401 32.9937C 12.888 32.9946 12.8404 32.9951 12.788 32.9951L 12.788 34.9951C 12.8496 34.995 12.9157 34.9944 12.977 34.9933L 12.9401 32.9937ZM 12.788 32.9951C 8.34643 32.9951 4.75115 29.4065 4.75115 24.9864L 2.75115 24.9864C 2.75115 30.517 7.24776 34.9951 12.788 34.9951L 12.788 32.9951ZM 4.75115 24.9864C 4.75115 20.5662 8.34643 16.9777 12.788 16.9777L 12.788 14.9777C 7.24776 14.9777 2.75115 19.4558 2.75115 24.9864L 4.75115 24.9864ZM 12.788 16.9777C 14.6146 16.9636 16.1603 17.5069 17.5299 18.5195L 18.7087 16.9038C 17.0894 15.7358 14.949 14.9918 12.788 14.9777L 12.788 16.9777ZM 17.5299 18.5195C 18.2142 19.0151 18.764 19.5614 19.2633 20.2417L 20.8716 19.0527C 20.2773 18.2538 19.5121 17.4935 18.7087 16.9038L 17.5299 18.5195ZM 21.9524 17.3013C 22.3061 17.7024 22.6132 18.1011 22.9112 18.5468L 24.5727 17.4335C 24.2371 16.9336 23.8498 16.4308 23.4537 15.9799L 21.9524 17.3013ZM 37.1705 3.41936C 29.3958 3.41936 22.9424 9.06722 21.7164 16.4774L 23.6896 16.8038C 24.7578 10.3478 30.3858 5.41936 37.1705 5.41936L 37.1705 3.41936ZM 52.5653 16.1418C 51.2027 8.89751 44.8276 3.41936 37.1705 3.41936L 37.1705 5.41936C 43.8523 5.41936 49.4125 10.1995 50.5997 16.5115L 52.5653 16.1418ZM 50.967 18.7322C 51.3696 18.1045 51.8014 17.5525 52.3112 17.0114L 50.8537 15.6418C 50.2834 16.2503 49.7392 16.9462 49.2851 17.65L 50.967 18.7322ZM 12.9585 37.0745C 6.35107 37.0745 1 31.7356 1 25.1563L -1 25.1563C -1 32.8461 5.25239 39.0745 12.9585 39.0745L 12.9585 37.0745ZM 37.1705 37.0745L 12.9585 37.0745L 12.9585 39.0745L 37.1705 39.0745L 37.1705 37.0745ZM 61.0415 37.0745L 37.1705 37.0745L 37.1705 39.0745L 61.0415 39.0745L 61.0415 37.0745ZM 73 25.1563C 73 31.7356 67.6489 37.0745 61.0415 37.0745L 61.0415 39.0745C 68.7476 39.0745 75 32.8461 75 25.1563L 73 25.1563ZM 61.0415 13.2382C 67.6489 13.2382 73 18.5771 73 25.1563L 75 25.1563C 75 17.4666 68.7476 11.2382 61.0415 11.2382L 61.0415 13.2382ZM 55.8783 14.403C 57.4743 13.6342 59.155 13.2314 61.0415 13.2382L 61.0415 11.2382C 58.921 11.2451 56.8071 11.7488 55.016 12.5985L 55.8783 14.403ZM 37.1705 1C 45.3351 1 52.2369 6.38925 54.4905 13.792L 56.4038 13.2095C 53.9 4.98487 46.2362 -1 37.1705 -1L 37.1705 1ZM 19.8089 13.9308C 22.018 6.45683 28.9548 1 37.1705 1L 37.1705 -1C 28.0482 -1 20.3454 5.0598 17.8909 13.3639L 19.8089 13.9308ZM 12.9585 13.2382C 14.956 13.2305 16.7301 13.6823 18.3958 14.5383L 19.304 12.7564C 17.4346 11.8105 15.2039 11.2459 12.9585 11.2382L 12.9585 13.2382ZM 1 25.1563C 1 18.5771 6.35107 13.2382 12.9585 13.2382L 12.9585 11.2382C 5.25239 11.2382 -1 17.4666 -1 25.1563L 1 25.1563ZM 52.7215 19.1429C 52.4363 19.5378 52.0538 19.737 51.7097 19.737L 51.7097 21.737C 52.8324 21.737 53.7693 21.108 54.3429 20.3139L 52.7215 19.1429ZM 19.2633 20.2417C 19.8764 21.0709 20.8639 21.737 22.0498 21.737L 22.0498 19.737C 21.645 19.737 21.2042 19.5026 20.8716 19.0527L 19.2633 20.2417ZM 22.0498 21.737C 23.1376 21.737 24.0885 21.1911 24.614 20.3702C 25.1531 19.5282 25.2272 18.4102 24.5727 17.4335L 22.9112 18.5468C 23.092 18.8166 23.0703 19.0721 22.9296 19.2919C 22.7755 19.5327 22.4626 19.737 22.0498 19.737L 22.0498 21.737ZM 49.2851 17.65C 48.6837 18.5847 48.7639 19.6453 49.2777 20.4423C 49.7793 21.2204 50.6798 21.737 51.7097 21.737L 51.7097 19.737C 51.3558 19.737 51.0901 19.5625 50.9587 19.3586C 50.8394 19.1736 50.8197 18.9612 50.967 18.7322L 49.2851 17.65Z"/>
<path id="path2_fill" d="M 0 0L 2.24165 0L 2.24165 11.3034L 0 11.3034L 0 0Z"/>
<path id="path3_fill" d="M 0 0L 2.26067 0L 2.26067 11.2083L 0 11.2083L 0 0Z"/>
<path id="path4_fill" d="M 0 0L 2.25118 0L 2.25118 11.2559L 0 11.2559L 0 0Z"/>
<path id="path5_fill" d="M 0 0L 2.25118 0L 2.25118 11.2559L 0 11.2559L 0 0Z"/>
<path id="path6_fill" d="M 0 0L 2.25118 0L 2.25118 11.2559L 0 11.2559L 0 0Z"/>
<path id="path7_fill" d="M 0 0L 2.26067 0L 2.26067 11.2083L 0 11.2083L 0 0Z"/>
<path id="path8_fill" d="M 0 0L 2.25118 0L 2.25118 11.2559L 0 11.2559L 0 0Z"/>
</defs>
</svg>
