<svg width="77" height="70" viewBox="0 0 77 70" version="1.1" xmlns="http://www.w3.org/2000/svg" xmlns:xlink="http://www.w3.org/1999/xlink">
<title>Thunder Icon</title>
<desc>Created using Figma</desc>
<g id="Canvas" transform="translate(-69 -4)">
<g id="Thunder Icon">
<g id="Heavy Rain Icon">
<g id="Cloud Icon">
<use xlink:href="#path0_fill" transform="translate(70.0882 5)" fill="#2C4251"/>
<mask id="mask0_outline_out">
<rect id="mask0_outline_inv" fill="white" x="-1" y="-1" width="76" height="41" transform="translate(70.0882 5)"/>
<use xlink:href="#path0_fill" fill="black" transform="translate(70.0882 5)"/>
</mask>
<g mask="url(#mask0_outline_out)">
<use xlink:href="#path1_stroke_2x" transform="translate(70.0882 5)" fill="#2C4251"/>
</g>
</g>
<g id="Raindrop">
<g id="Ellipse 3">
<use xlink:href="#path2_fill" transform="translate(82.7843 45.9902)" fill="#2C4251"/>
</g>
</g>
<g id="Raindrop">
<g id="Ellipse 3">
<use xlink:href="#path3_fill" transform="translate(121.598 45.9902)" fill="#2C4251"/>
</g>
</g>
</g>
<g id="Group">
<g id="Subtract">
<use xlink:href="#path4_fill" transform="matrix(0.963452 0.267882 -0.267882 0.963452 109.765 51.999)" fill="#2C4251"/>
</g>
<g id="Subtract">
<use xlink:href="#path5_fill" transform="matrix(0.963452 0.267882 -0.267882 0.963452 106.095 40.549)" fill="#2C4251"/>
</g>
</g>
</g>
</g>
<defs>
<path id="path0_fill" fill-rule="evenodd" d="M 0 25.1849C 0 32.3274 5.80173 38.1176 12.9585 38.1176L 37.1705 38.1176L 61.0415 38.1176C 68.1983 38.1176 74 32.3274 74 25.1849C 74 18.0423 68.1983 12.2521 61.0415 12.2521C 59.038 12.2521 57.1407 12.7059 55.4471 13.516C 53.0684 5.69351 45.7857 0 37.1705 0C 28.5015 0 21.1817 5.76485 18.8499 13.6628C 17.0824 12.7609 15.08 12.2521 12.9585 12.2521C 5.80173 12.2521 0 18.0423 0 25.1849ZM 51.7089 20.7605C 52.4428 20.7605 53.1028 20.346 53.5321 19.7509C 54.2419 18.7669 55.1455 17.9315 56.1871 17.3003C 57.553 16.4725 59.1562 15.9958 60.871 15.9958C 65.8619 15.9958 69.9078 20.0337 69.9078 25.0147C 69.9078 29.9389 65.9537 33.9413 61.0415 34.032L 61.0415 34.0336L 60.871 34.0336L 51.591 34.0336L 48.9849 34.0336L 25.3562 34.0336L 22.409 34.0336L 12.9585 34.0336L 12.9585 34.032C 12.9018 34.0331 12.845 34.0336 12.788 34.0336C 7.7971 34.0336 3.75115 29.9957 3.75115 25.0147C 3.75115 20.0337 7.7971 15.9958 12.788 15.9958C 14.7818 15.9958 16.6248 16.6402 18.1193 17.7317C 18.8632 18.275 19.5208 18.9291 20.0676 19.6696C 20.5403 20.3098 21.2549 20.7605 22.0507 20.7605L 22.0507 20.7605C 23.5511 20.7605 24.5782 19.2607 23.744 18.0135C 23.4266 17.5391 23.0787 17.0868 22.703 16.6595C 23.8501 9.71854 29.8908 4.42437 37.1705 4.42437C 44.3399 4.42437 50.3076 9.55935 51.5825 16.3452C 51.0416 16.9214 50.553 17.547 50.1242 18.2146C 49.3765 19.3787 50.3253 20.7605 51.7089 20.7605L 51.7089 20.7605Z"/>
<path id="path1_stroke_2x" d="M 56.1871 17.3003L 56.7054 18.1555L 56.7054 18.1555L 56.1871 17.3003ZM 61.0415 34.032L 61.023 33.0322L 60.0415 33.0503L 60.0415 34.032L 61.0415 34.032ZM 61.0415 34.0336L 61.0415 35.0336L 62.0415 35.0336L 62.0415 34.0336L 61.0415 34.0336ZM 12.9585 34.0336L 11.9585 34.0336L 11.9585 35.0336L 12.9585 35.0336L 12.9585 34.0336ZM 12.9585 34.032L 13.9585 34.032L 13.9585 33.0134L 12.9401 33.0322L 12.9585 34.032ZM 18.1193 17.7317L 17.5295 18.5393L 17.5295 18.5393L 18.1193 17.7317ZM 20.0676 19.6696L 19.2631 20.2637L 20.0676 19.6696ZM 22.703 16.6595L 21.7164 16.4964L 21.6392 16.9639L 21.952 17.3197L 22.703 16.6595ZM 51.5825 16.3452L 52.3116 17.0295L 52.659 16.6594L 52.5653 16.1605L 51.5825 16.3452ZM 50.1242 18.2146L 50.9656 18.755L 50.1242 18.2146ZM 55.4471 13.516L 54.4904 13.807L 54.8289 14.9203L 55.8787 14.4181L 55.4471 13.516ZM 18.8499 13.6628L 18.3954 14.5536L 19.468 15.1009L 19.809 13.946L 18.8499 13.6628ZM 55.6688 16.4451C 54.5438 17.1327 53.4932 18.104 52.7211 19.1659L 54.3431 20.3359C 54.9906 19.4299 55.7471 18.7303 56.7054 18.1555L 55.6688 16.4451ZM 60.871 14.9958C 59.0122 15.0062 57.148 15.5581 55.6688 16.4451L 56.7054 18.1555C 57.9579 17.3868 59.3002 16.9854 60.871 16.9958L 60.871 14.9958ZM 70.9078 25.0147C 70.9078 19.4795 66.4123 14.9958 60.871 14.9958L 60.871 16.9958C 65.3115 16.9958 68.9078 20.5879 68.9078 25.0147L 70.9078 25.0147ZM 61.0599 35.0319C 66.5143 34.9311 70.9078 30.4868 70.9078 25.0147L 68.9078 25.0147C 68.9078 29.3909 65.3931 32.9515 61.023 33.0322L 61.0599 35.0319ZM 60.0415 34.032L 60.0415 34.0336L 62.0415 34.0336L 62.0415 34.032L 60.0415 34.032ZM 61.0415 33.0336L 60.871 33.0336L 60.871 35.0336L 61.0415 35.0336L 61.0415 33.0336ZM 60.871 33.0336L 51.591 33.0336L 51.591 35.0336L 60.871 35.0336L 60.871 33.0336ZM 51.591 33.0336L 48.9849 33.0336L 48.9849 35.0336L 51.591 35.0336L 51.591 33.0336ZM 48.9849 33.0336L 25.3562 33.0336L 25.3562 35.0336L 48.9849 35.0336L 48.9849 33.0336ZM 25.3562 33.0336L 22.409 33.0336L 22.409 35.0336L 25.3562 35.0336L 25.3562 33.0336ZM 22.409 33.0336L 12.9585 33.0336L 12.9585 35.0336L 22.409 35.0336L 22.409 33.0336ZM 13.9585 34.0336L 13.9585 34.032L 11.9585 34.032L 11.9585 34.0336L 13.9585 34.0336ZM 12.9401 33.0322C 12.888 33.0332 12.8403 33.0336 12.788 33.0336L 12.788 35.0336C 12.8496 35.0336 12.9157 35.033 12.977 35.0319L 12.9401 33.0322ZM 12.788 33.0336C 8.3475 33.0336 4.75115 29.4416 4.75115 25.0147L 2.75115 25.0147C 2.75115 30.5499 7.24669 35.0336 12.788 35.0336L 12.788 33.0336ZM 4.75115 25.0147C 4.75115 20.5879 8.3475 16.9958 12.788 16.9958L 12.788 14.9958C 7.24669 14.9958 2.75115 19.4795 2.75115 25.0147L 4.75115 25.0147ZM 12.788 16.9958C 14.6144 16.9817 16.1599 17.5255 17.5295 18.5393L 18.7091 16.9242C 17.0898 15.7549 14.9492 15.0099 12.788 14.9958L 12.788 16.9958ZM 17.5295 18.5393C 18.2138 19.0355 18.7637 19.5825 19.2631 20.2637L 20.872 19.0756C 20.2778 18.2757 19.5126 17.5146 18.7091 16.9242L 17.5295 18.5393ZM 21.952 17.3197C 22.3065 17.7221 22.6143 18.1223 22.9128 18.5695L 24.5752 17.4575C 24.239 16.956 23.851 16.4515 23.4541 15.9992L 21.952 17.3197ZM 37.1705 3.42437C 29.3949 3.42437 22.9422 9.07914 21.7164 16.4964L 23.6897 16.8225C 24.758 10.3579 30.3867 5.42437 37.1705 5.42437L 37.1705 3.42437ZM 52.5653 16.1605C 51.2029 8.90923 44.8284 3.42437 37.1705 3.42437L 37.1705 5.42437C 43.8514 5.42437 49.4122 10.2095 50.5997 16.5298L 52.5653 16.1605ZM 50.9656 18.755C 51.3687 18.1256 51.801 17.572 52.3116 17.0295L 50.8534 15.6608C 50.2822 16.2708 49.7374 16.9684 49.2829 17.6741L 50.9656 18.755ZM 12.9585 37.1176C 6.35214 37.1176 1 31.7733 1 25.1849L -1 25.1849C -1 32.8816 5.25132 39.1176 12.9585 39.1176L 12.9585 37.1176ZM 37.1705 37.1176L 12.9585 37.1176L 12.9585 39.1176L 37.1705 39.1176L 37.1705 37.1176ZM 61.0415 37.1176L 37.1705 37.1176L 37.1705 39.1176L 61.0415 39.1176L 61.0415 37.1176ZM 73 25.1849C 73 31.7733 67.6479 37.1176 61.0415 37.1176L 61.0415 39.1176C 68.7487 39.1176 75 32.8816 75 25.1849L 73 25.1849ZM 61.0415 13.2521C 67.6479 13.2521 73 18.5965 73 25.1849L 75 25.1849C 75 17.4881 68.7487 11.2521 61.0415 11.2521L 61.0415 13.2521ZM 55.8787 14.4181C 57.4746 13.6485 59.1551 13.2452 61.0415 13.2521L 61.0415 11.2521C 58.9209 11.259 56.8067 11.7633 55.0156 12.614L 55.8787 14.4181ZM 37.1705 1C 45.3344 1 52.2365 6.39493 54.4904 13.807L 56.4039 13.2251C 53.9003 4.99209 46.237 -1 37.1705 -1L 37.1705 1ZM 19.809 13.946C 22.0184 6.46258 28.9556 1 37.1705 1L 37.1705 -1C 28.0474 -1 20.345 5.06711 17.8908 13.3797L 19.809 13.946ZM 12.9585 13.2521C 14.9559 13.2444 16.7298 13.6967 18.3954 14.5536L 19.3044 12.7721C 17.435 11.8251 15.2041 11.2598 12.9585 11.2521L 12.9585 13.2521ZM 1 25.1849C 1 18.5965 6.35214 13.2521 12.9585 13.2521L 12.9585 11.2521C 5.25132 11.2521 -1 17.4881 -1 25.1849L 1 25.1849ZM 52.7211 19.1659C 52.4359 19.5611 52.0533 19.7605 51.7089 19.7605L 51.7089 21.7605C 52.8322 21.7605 53.7696 21.131 54.3431 20.3359L 52.7211 19.1659ZM 19.2631 20.2637C 19.8761 21.0938 20.8641 21.7605 22.0507 21.7605L 22.0507 19.7605C 21.6456 19.7605 21.2045 19.5259 20.872 19.0756L 19.2631 20.2637ZM 22.0507 21.7605C 23.1383 21.7605 24.0891 21.2148 24.6148 20.3941C 25.1541 19.5523 25.2287 18.4346 24.5752 17.4575L 22.9128 18.5695C 23.0934 18.8396 23.0716 19.0954 22.9307 19.3153C 22.7764 19.5563 22.4635 19.7605 22.0507 19.7605L 22.0507 21.7605ZM 49.2829 17.6741C 48.6823 18.6091 48.763 19.6694 49.277 20.4662C 49.7788 21.2441 50.6792 21.7605 51.7089 21.7605L 51.7089 19.7605C 51.3551 19.7605 51.0892 19.586 50.9576 19.382C 50.8382 19.1969 50.8184 18.9842 50.9656 18.755L 49.2829 17.6741Z"/>
<path id="path2_fill" d="M 9.51428 12.2982C 9.51428 14.6675 7.38444 16.5882 4.75714 16.5882C 2.12985 16.5882 0 14.6675 0 12.2982C 0 9.92884 4.75714 0 4.75714 0C 4.75714 0 9.51428 9.92884 9.51428 12.2982Z"/>
<path id="path3_fill" d="M 9.51429 12.2982C 9.51429 14.6675 7.38444 16.5882 4.75714 16.5882C 2.12985 16.5882 0 14.6675 0 12.2982C 0 9.92884 4.75714 0 4.75714 0C 4.75714 0 9.51429 9.92884 9.51429 12.2982Z"/>
<path id="path4_fill" fill-rule="evenodd" d="M 1.46058e-05 20.0967L 0 1.86612L 6.60321 0L 6.60321 18.2306L 1.46058e-05 20.0967Z"/>
<path id="path5_fill" fill-rule="evenodd" d="M 0 1.86612L 6.95415e-06 20.0967L 6.60321 18.2306L 6.60321 0L 0 1.86612Z"/>
</defs>
</svg>
